<svg xmlns="http://www.w3.org/2000/svg" viewBox="0 0 100 100"><defs><style>.cls-1{fill:#ffb400;}.cls-2{fill:#232f3e;}.cls-3{fill:none;}</style></defs><title>Asset 38orange-bullseye</title><g id="Layer_2" data-name="Layer 2"><g id="Layer_1-2" data-name="Layer 1"><path class="cls-1" d="M48.44,10A41.75,41.75,0,1,0,90.19,51.76h0A41.16,41.16,0,0,0,82.5,27.61c-.68-1-9.09-1.58-9.09-1.58s0-7.78-.76-8.29A41.57,41.57,0,0,0,48.44,10Zm0,64.35A22.6,22.6,0,1,1,71,51.76a22.6,22.6,0,0,1-22.6,22.6h0Z"/><path class="cls-2" d="M84.74,31a1.5,1.5,0,0,0-.64,2A40.22,40.22,0,1,1,67,15.93a1.5,1.5,0,1,0,1.39-2.66A43.23,43.23,0,1,0,86.76,31.64,1.5,1.5,0,0,0,84.74,31Z"/><path class="cls-2" d="M61.31,33.33a1.5,1.5,0,0,0-.5-2.06,23.83,23.83,0,1,0,8,8,1.5,1.5,0,0,0-2.56,1.56,20.83,20.83,0,1,1-7-7A1.5,1.5,0,0,0,61.31,33.33Z"/><path class="cls-2" d="M47.32,48.28a1.5,1.5,0,0,0-.92-2.85,6.51,6.51,0,1,0,8.18,8.26,1.51,1.51,0,0,0-2.84-1,3.51,3.51,0,1,1-4.41-4.46Z"/><path class="cls-2" d="M94.74,16.26a1.5,1.5,0,0,0-1.3-1l-6.17-.41,3.95-3.95A1.5,1.5,0,0,0,89.1,8.78l-3.95,4-.42-6.17a1.5,1.5,0,0,0-2.58-1L71.41,16.39A1.5,1.5,0,0,0,71,17.55l.58,8.79L47.34,50.56a1.5,1.5,0,1,0,2,2.19l.07-.07L73.68,28.46l8.79.58h.1a1.5,1.5,0,0,0,1.06-.44L94.39,17.85A1.5,1.5,0,0,0,94.74,16.26Zm-12.41-.68-2.57,2.61-.37-5.49L82,10.09ZM74,18l2.56-2.56L76.94,21l-2.56,2.56Zm8,8-5.49-.37,2.56-2.56,5.49.36Zm5.38-5.38-5.49-.37,2.56-2.56,5.49.37Z"/><rect class="cls-3" width="100" height="100"/></g></g></svg>