<svg xmlns="http://www.w3.org/2000/svg" viewBox="0 0 100 100"><defs><style>.cls-1{fill:none;}.cls-2{fill:#ffb400;}.cls-3{fill:#232f3e;}</style></defs><title>Asset 28line-only-stopwatch-02</title><g id="Layer_2" data-name="Layer 2"><g id="Layer_1-2" data-name="Layer 1"><rect class="cls-1" width="100" height="100"/><path class="cls-2" d="M49.87,94.33a36.4,36.4,0,1,1,36.4-36.4A36.44,36.44,0,0,1,49.87,94.33Zm0-64.8a28.4,28.4,0,1,0,28.4,28.4A28.43,28.43,0,0,0,49.87,29.53Z"/><path class="cls-3" d="M54.87,19.79V12.48a4.5,4.5,0,0,0-1.5-8.74h-7a4.5,4.5,0,0,0-1.5,8.74v7.31A38.24,38.24,0,0,0,28.14,26.2l-4-4a4.5,4.5,0,1,0-6.36,6.36l3.58,3.58A38.46,38.46,0,1,0,54.87,19.79ZM46.37,9.74a1.5,1.5,0,0,1,0-3h7a1.5,1.5,0,0,1,0,3,1.5,1.5,0,0,0-1.5,1.5v8.27q-1-.05-2-.05t-2,.05V11.24A1.5,1.5,0,0,0,46.37,9.74ZM19.45,25.37a1.49,1.49,0,0,1,.44-1.06,1.54,1.54,0,0,1,2.12,0L25.72,28q-1.17.95-2.26,2l-3.57-3.57A1.49,1.49,0,0,1,19.45,25.37Zm30.42,68A35.47,35.47,0,1,1,85.34,57.93,35.51,35.51,0,0,1,49.87,93.4Z"/><path class="cls-3" d="M49.87,28.35A29.58,29.58,0,1,0,79.45,57.93,29.61,29.61,0,0,0,49.87,28.35Zm1.5,56.11V80.22a1.5,1.5,0,0,0-3,0v4.25a26.61,26.61,0,0,1-25-25h4.25a1.5,1.5,0,1,0,0-3H23.33a26.61,26.61,0,0,1,25-25v4.25a1.5,1.5,0,0,0,3,0V31.4a26.61,26.61,0,0,1,25,25H72.15a1.5,1.5,0,0,0,0,3H76.4A26.61,26.61,0,0,1,51.37,84.46Z"/><path class="cls-3" d="M49.87,53.93a4,4,0,0,0-3.68,5.56L34.38,71.3a1.5,1.5,0,1,0,2.12,2.12L48.31,61.61a4,4,0,1,0,1.56-7.68Z"/></g></g></svg>