<svg xmlns="http://www.w3.org/2000/svg" viewBox="0 0 100 100"><defs><style>.cls-1{fill:none;}.cls-2{fill:#ffb400;}.cls-3{fill:#232f3e;}</style></defs><title>Asset 25orange-shield</title><g id="Layer_2" data-name="Layer 2"><g id="Layer_1-2" data-name="Layer 1"><rect class="cls-1" width="100" height="100"/><path class="cls-2" d="M80.73,12C67.51,17.82,52.45,5.9,52.22,5.71L50,3.92,47.78,5.71c-.15.12-15.26,12.12-28.51,6.29l-5-2.18v5.46c0,62.46,32.74,79.34,34.14,80l1.56.77,1.56-.77c1.39-.69,34.14-17.56,34.14-80V9.83ZM50,87.5A51.14,51.14,0,0,1,36.54,73.64C30,64.08,22.3,47.11,21.47,19.77a27.2,27.2,0,0,0,5.69.59c10,0,18.84-5.14,22.84-7.86,4,2.72,12.87,7.86,22.85,7.86a27.24,27.24,0,0,0,5.68-.59C77.12,66.07,56,83.5,50,87.5Z"/><path class="cls-3" d="M50,97.5a1.39,1.39,0,0,1-.62-.14l-1.56-.77c-1.43-.7-34.92-18-34.92-81.3V9.83a1.42,1.42,0,0,1,.63-1.18,1.39,1.39,0,0,1,1.33-.12l5,2.18c12.42,5.46,26.94-6,27.08-6.1l2.22-1.79a1.39,1.39,0,0,1,1.75,0l2.22,1.8c.14.12,14.63,11.57,27.08,6.1l5-2.18a1.39,1.39,0,0,1,1.33.12,1.42,1.42,0,0,1,.63,1.18v5.46c0,63.35-33.5,80.6-34.93,81.3l-1.56.77A1.39,1.39,0,0,1,50,97.5ZM15.71,12v3.3c0,61.6,32,78.08,33.35,78.75l.94.46.94-.46c1.36-.67,33.35-17.15,33.35-78.75V12l-3,1.32c-14,6.16-29.79-6.36-29.95-6.49L50,5.73,48.66,6.82c-.16.13-15.95,12.64-30,6.49Z"/><path class="cls-3" d="M50,15.88c4.94,3.12,13.37,7.32,22.85,7.32q1.38,0,2.74-.12C73.52,62,57.11,78.62,50,84A50.59,50.59,0,0,1,38.85,72c-5.93-8.69-13.11-24.14-14.43-49,.91.08,1.82.12,2.74.12,9.47,0,17.9-4.2,22.84-7.32m0-3.38c-4,2.72-12.86,7.86-22.84,7.86a27.2,27.2,0,0,1-5.69-.59C22.3,47.11,30,64.08,36.54,73.64A51.14,51.14,0,0,0,50,87.5c6-4,27.13-21.43,28.54-67.73a27.24,27.24,0,0,1-5.68.59c-10,0-18.85-5.14-22.85-7.86Z"/><path class="cls-3" d="M64.12,43.72a31.28,31.28,0,0,1-13.29,3.22,33.16,33.16,0,0,1-17.64-4.79c-.47-.24-.78.24-.39.55a24.71,24.71,0,0,0,17.64,7.06,24,24,0,0,0,14.3-5A.6.6,0,0,0,64.12,43.72Z"/><path class="cls-3" d="M67.85,41.75c-.47-.55-4-1-6.29.78-.31.24-.23.63.08.55,1.24-.16,4-.63,4.51.08s-.47,3.61-.93,4.87c-.16.39.16.55.47.24C67.78,46.31,68.24,42.3,67.85,41.75Z"/></g></g></svg>